<svg id="Layer_1" data-name="Layer 1" xmlns="http://www.w3.org/2000/svg" xmlns:xlink="http://www.w3.org/1999/xlink" width="652.9372" height="93.0943" viewBox="0 0 652.9372 93.0943"><defs><linearGradient id="linear-gradient" x1="-217.7845" y1="759.5855" x2="-80.7532" y2="838.5946" gradientTransform="translate(214.34 -753.5034)" gradientUnits="userSpaceOnUse"><stop offset="0" stop-color="#2298bd"/><stop offset="1" stop-color="#0ed7b5"/></linearGradient></defs><path d="M66.7,6.547q-26.7,0-33.3,26.7c6.7-8.9,14.4-12.2,23.3-10,5.1,1.3,8.7,4.9,12.7,9,6.5,6.6,14.1,14.3,30.6,14.3q26.7,0,33.3-26.7c-6.7,8.9-14.4,12.2-23.3,10-5.1-1.3-8.7-4.9-12.7-9C90.8,14.247,83.2,6.547,66.7,6.547Zm-33.4,40c-17.7,0-28.9,8.9-33.3,26.6,6.7-8.9,14.4-12.2,23.3-10,5.1,1.3,8.7,4.9,12.7,9,6.5,6.6,14.1,14.3,30.6,14.3q26.7,0,33.3-26.7c-6.7,8.9-14.4,12.2-23.3,10-5.1-1.3-8.7-4.9-12.7-9C57.4,54.247,49.9,46.547,33.3,46.547Z" style="fill-rule:evenodd;fill:url(#linear-gradient)"/><path d="M258.8238,18.247c-.3,2.1-.8,5.7-1.4,9.4-.2,1.2.1,1.6,1.2,2,4.9,1.5,9.7,3.4,13.8,6.6a28.4021,28.4021,0,0,1,4.9,4.9c3,4.2,2.2,8.6-1,12.3-4.1,4.8-9.6,7.3-15.3,9.5a9.3543,9.3543,0,0,1-2.2.7c-1.1.2-1.3.7-1,1.8a43.8137,43.8137,0,0,1,1.4,12,24.1174,24.1174,0,0,1-2.3,10.2c-2.6,5.1-6.8,6.1-11.6,5.1-5.4-1.1-9.9-4-14-7.4-1.1-.9-2.2-1.8-3.2-2.8-.7-.6-1.1-.6-1.7,0a46.4915,46.4915,0,0,1-10.8,7.8,20.51,20.51,0,0,1-9.1,2.7c-5.5.1-8.8-2.5-10.4-7.7a31.46,31.46,0,0,1-.8-13.3c.3-2.1.6-4.1,1.1-6.2.3-1.1-.1-1.6-1.1-2-3.4-1.3-6.8-2.7-10-4.3a23.5906,23.5906,0,0,1-8.1-6.6c-3.3-4.3-3.1-8.9.3-13.2a22.3525,22.3525,0,0,1,7.7-6c3.3-1.6,6.7-2.9,10.2-4.2,1-.4,1.4-.7,1.1-1.9a46.4963,46.4963,0,0,1-1.5-12.9c.1-3.8.7-7.6,3-10.8,2.2-3.2,5.5-4.2,9.2-3.7,5.4.7,9.9,3.4,14.2,6.5a39.1474,39.1474,0,0,1,4.4,3.7c1.2,1.1,1.3,1.1,2.6,0,2.1-1.8,4.2-3.6,6.4-5.2a27.5419,27.5419,0,0,1,11.6-5.1q7.2-1.05,10.5,5.4C258.4238,8.947,258.7238,12.747,258.8238,18.247Zm-32.4,44.8h8.8a2.2027,2.2027,0,0,0,1.6-.9c2.9-4.9,5.7-9.8,8.5-14.8a1.8,1.8,0,0,0,0-1.6q-4.2-7.5-8.7-15a1.5249,1.5249,0,0,0-1.2-.7,48.4365,48.4365,0,0,0-5.3-.3c-3.9,0-7.9.1-11.8.3a2.0159,2.0159,0,0,0-1.5.9c-2.9,4.9-5.7,9.7-8.5,14.6a2.1181,2.1181,0,0,0,0,1.9c2.8,4.9,5.6,9.8,8.5,14.7a2.2386,2.2386,0,0,0,1.5.8C220.9238,63.047,223.7238,63.047,226.4238,63.047Zm-47.4-17.1a8.4215,8.4215,0,0,0,3.2,6.1,39.2952,39.2952,0,0,0,14.3,7.5c.8.3,1.1-.1,1.4-.8,1.5-3.9,3-7.7,4.5-11.6a2.5534,2.5534,0,0,0,.1-1.2c-1.5-3.9-3-7.7-4.5-11.6-.3-.8-.7-.9-1.4-.7a18.66,18.66,0,0,1-2.2.7c-4.7,1.7-9.2,3.7-12.8,7.2C180.2238,42.947,179.1238,44.447,179.0238,45.947Zm19.9,31a.3674.3674,0,0,1,.3.1,17.6334,17.6334,0,0,0,0,2.3,47.9543,47.9543,0,0,0,1.5,6.3,3.7478,3.7478,0,0,0,3.5,2.8,16.7236,16.7236,0,0,0,5-.6c5-1.6,9.2-4.7,13.1-8.1,1.2-1.1,1.2-1.2.1-2.4l-.5-.5c-2.1-2.6-4.3-5.2-6.3-7.9a3.3627,3.3627,0,0,0-2.6-1.6c-3.8-.5-7.5-1-11.2-1.6-.9-.1-1.3.1-1.5,1C200.0238,70.047,199.4238,73.447,198.9238,76.947Zm55.7-.6q-.75-5.1-1.5-9.9c-.1-.9-.6-1.2-1.5-1-3.9.6-7.9,1.2-11.8,1.9a2.82,2.82,0,0,0-1.6.9c-2.5,3.1-4.9,6.2-7.4,9.4-.5.7-.6,1.2.1,1.7,1.8,1.4,3.5,3,5.3,4.3a27.2041,27.2041,0,0,0,8.8,4.5c4.3,1.2,6.9-.1,8.1-4.3A38.3383,38.3383,0,0,0,254.6238,76.347Zm-49.3-71.7a4.486,4.486,0,0,0-4.4,2.7,16.1507,16.1507,0,0,0-1.6,6.8,47.8751,47.8751,0,0,0,1.3,12.5c.2.9.5,1.1,1.4.9,3.9-.7,7.8-1.2,11.7-1.9a2.99,2.99,0,0,0,1.7-1c2.6-3.1,5.1-6.2,7.6-9.3.4-.5.5-.9,0-1.4a49.0108,49.0108,0,0,0-9.8-7.1A20.6237,20.6237,0,0,0,205.3238,4.647Zm49.1,11.9h-.3v-2.7a14.9007,14.9007,0,0,0-2-7.1,4.226,4.226,0,0,0-4.5-2.2,16.7072,16.7072,0,0,0-4.4,1.1c-4.8,1.9-8.8,5.1-12.6,8.5-.5.4-.4.8,0,1.3a19.1978,19.1978,0,0,1,1.4,1.5c2.1,2.6,4.1,5.3,6.2,7.9a1.6444,1.6444,0,0,0,1.2.8c4,.7,8.1,1.3,12.1,1.9.9.1,1.3-.1,1.4-1C253.4238,23.347,253.9238,19.947,254.4238,16.547Zm20,29.6c-.3-2.1-1.7-3.7-3.3-5.2-4.1-3.6-9.1-5.5-14.2-7.2-.8-.3-1.1,0-1.4.8-1.4,3.7-2.9,7.4-4.3,11.1a1.95,1.95,0,0,0,0,1.5c1.5,3.9,3.1,7.7,4.6,11.5.3.6.6.8,1.2.6,5.5-1.8,10.7-4,14.9-8.2A6.2406,6.2406,0,0,0,274.4238,46.147Zm-32.1,16.1c.5,0,.8.1,1.1.1,2.4-.4,4.7-.9,7.1-1.2.9-.1,1.1-.5.8-1.3l-2.7-6.9c-.1-.2-.3-.4-.5-.7C246.2238,55.447,244.3238,58.747,242.3238,62.247Zm-31.2.3c0-.1.1-.2.1-.3-1.9-3.3-3.8-6.6-5.8-9.9h-.3c-.9,2.6-1.9,5.3-2.8,8-.1.2.3.8.6.8C205.6238,61.647,208.3238,62.047,211.1238,62.547Zm15.8,12.7c2.1-2.6,3.9-4.8,5.9-7.3h-12C222.9238,70.547,224.8238,72.747,226.9238,75.247Zm21.1-34.4a.3674.3674,0,0,1,.3.1c.9-2.6,1.9-5.1,2.8-7.7.3-.7-.3-1-.8-1.1-1.7-.3-3.3-.6-5-.9a24.2911,24.2911,0,0,0-3-.4C244.3238,34.247,246.1238,37.547,248.0238,40.847Zm-36.7-10.2c-3,.5-5.7,1-8.3,1.5-.8.1-.7.6-.5,1.2.6,1.7,1.2,3.5,1.9,5.2.3.7.6,1.5,1,2.5C207.4238,37.447,209.2238,34.247,211.3238,30.647Zm21.1-5.4c.1-.1.2-.2.2-.3l-5.4-6.3a1.54,1.54,0,0,0-1.1.2c-1.4,1.5-2.7,3.1-4,4.6-.4.5-.8,1-1.3,1.7C224.9238,25.247,228.6238,25.247,232.4238,25.247Z" style="fill:#02d4fa"/><path d="M226.8238,55.847a9.326,9.326,0,0,1-9.4-9.4,9.35,9.35,0,1,1,9.4,9.4Z" style="fill:#02d4fa"/><path d="M530,33.847c-.2,1-.4,2-.6,2.9-2.7,12.8-5.5,25.7-8.2,38.5a1.7138,1.7138,0,0,1-1.3,1.4c-13.4,4.3-26.8,8.7-40.1,13a2.0132,2.0132,0,0,1-2.2-.5c-10.5-9.5-21-18.9-31.5-28.4a1.4362,1.4362,0,0,1-.5-1.5c2.9-13.8,5.9-27.6,8.7-41.4.2-1.1.8-1.5,1.8-1.9,11-3.6,22-7.1,33-10.7,2.3-.7,4.6-1.5,6.9-2.2a1.8376,1.8376,0,0,1,2,.4c8.5,7.7,17,15.3,25.4,23,1.7,1.6,3.5,3.1,5.3,4.7A4.3029,4.3029,0,0,1,530,33.847Zm-42.3,43.5h16.8a1.5622,1.5622,0,0,0,1.5-.8c1.7-3,3.5-6,5.2-9,2.1-3.7,4.2-7.4,6.4-11,1.6-2.8,3.3-5.7,4.9-8.5a2.5907,2.5907,0,0,0,.1-2.8c-1-1.7-2-3.3-3-5-4.4-7.6-8.7-15.3-13.1-22.9a2.8151,2.8151,0,0,0-2.8-1.6c-10.8.1-21.6,0-32.4,0a2.0086,2.0086,0,0,0-2.1,1.2c-2,3.6-4.1,7.1-6.2,10.7-3.5,6.1-7,12.1-10.5,18.2a1.72,1.72,0,0,0-.1,1.4c1.3,2.3,2.6,4.6,4,7,4.3,7.4,8.5,14.9,12.8,22.4a1.5445,1.5445,0,0,0,1.6.9C476.5,77.347,482.1,77.347,487.7,77.347Z" style="fill:#443ad5"/><path d="M487.8,77.347H471a1.6964,1.6964,0,0,1-1.6-.9c-4.3-7.5-8.5-14.9-12.8-22.4-1.3-2.3-2.7-4.6-4-7a1.742,1.742,0,0,1,.1-1.4c3.5-6.1,7-12.1,10.5-18.2,2.1-3.6,4.1-7.1,6.2-10.7a2.2451,2.2451,0,0,1,2.1-1.2h32.4a2.8151,2.8151,0,0,1,2.8,1.6c4.4,7.6,8.7,15.3,13.1,22.9,1,1.7,2,3.3,3,5a2.41,2.41,0,0,1-.1,2.8c-1.7,2.8-3.3,5.6-4.9,8.5-2.1,3.7-4.2,7.4-6.4,11-1.7,3-3.5,6-5.2,9a1.411,1.411,0,0,1-1.5.8C499,77.347,493.4,77.347,487.8,77.347Zm-.1-10.9H498a1.955,1.955,0,0,0,2-1.2c1.7-3.1,3.5-6.2,5.3-9.2,1.6-2.8,3.3-5.7,4.9-8.5a1.81,1.81,0,0,0,.1-1.6c-3.5-6.2-7.1-12.3-10.6-18.5a1.4758,1.4758,0,0,0-1.5-.8H477.3a1.4165,1.4165,0,0,0-1.5.9c-3.5,6.1-7,12.1-10.5,18.2a1.5,1.5,0,0,0,0,1.8c3.5,6,7,12.1,10.4,18.1a1.6242,1.6242,0,0,0,1.6.9C480.8,66.447,484.3,66.447,487.7,66.447Z" style="fill:#7070e6"/><g id="sTV5JI.tif"><path d="M348.3869,89.0834c-.4283-.3864-.8748-.7546-1.2821-1.162Q332.46,73.2756,317.8192,58.6264c-.44-.4394-.9414-.8164-1.4142-1.2224v-.3167l26.27-.0061.6556.05q2.5067,2.5074,5.0132,5.015c.0281,5.9332.0653,11.8663.08,17.8C348.4322,82.9916,348.4006,86.0375,348.3869,89.0834Z" style="fill:#feda76"/><path d="M355.5992,89.0674q.033-12.9825.0659-25.9648c.471.41.9666.7943,1.4092,1.2325q7.2156,7.1439,14.417,14.3023l.3211.6q-.0011,5.0717-.002,10.1434H355.6637Z" style="fill:#feb86a"/><path d="M348.5137,30.5288q-.0714,2.825-.1429,5.65l-5.3809.0134c-.3811-.43-.7411-.88-1.1463-1.2855q-12.0014-12.0072-24.008-24.0091c-.4023-.4026-.744-.8656-1.114-1.3005h10.7645a5.5264,5.5264,0,0,0,.472.6244q9.8292,9.8429,19.6726,19.6717A6.6225,6.6225,0,0,0,348.5137,30.5288Z" style="fill:#fed553"/><path d="M348.5137,30.5288a6.6225,6.6225,0,0,1-.883-.6357q-9.8455-9.8265-19.6726-19.6717a5.5264,5.5264,0,0,1-.472-.6244h20.8958c.001,2.7634-.02,5.527.0142,8.29.0141,1.1263.15,2.2511.2306,3.3766Z" style="fill:#fec380"/><path d="M382.4918,73.2532q4.2634,4.3182,8.5267,8.6364,3.6947,3.7443,7.3865,7.4912H381.9417q-1.2678-1.4173-2.5357-2.835.1525-.1693.3052-.3383.009-7.6016.0181-15.203Z" style="fill:#fed554"/><path d="M348.6267,21.2636c-.0806-1.1255-.2165-2.25-.2306-3.3766-.0347-2.763-.0132-5.5266-.0142-8.29h9.1814q3.8256,3.94,7.6509,7.88h-4.0594l2.74,3.5115a12.186,12.186,0,0,1-1.6709.2359C357.6913,21.2532,353.159,21.2542,348.6267,21.2636Z" style="fill:#fedc63"/><path d="M379.406,86.546l2.5357,2.8348H371.81q.0011-5.0718.002-10.1433c.4337.3784.8854.7381,1.2981,1.1381q3.0021,2.91,5.9868,5.8369Z" style="fill:#feb147"/><path d="M355.5992,89.0674l.0645.3134h-.3166Z" style="fill:#fef5ea"/><path d="M371.2223,27.9367,364.82,21.3253h3.9073L365.78,17.5635q10.5985-.0336,21.197-.0606a1.3087,1.3087,0,0,1,.4183.1516V43.3578l-.381.2077q-4.9086-4.8265-9.817-9.6528l-.0441-.54c.2064-5.2582.2064-5.2582-5.0553-5.0577Z" style="fill:#fedc63"/><path d="M371.2223,27.9367q.4377.1892.8756.3778,2.5278,2.5285,5.055,5.058l.0441.54q-.002,6.4938-.0039,12.9885l.0052.1243q-1.1121-.0156-2.224-.0307-.1478-.0293-.2975-.0465c-.3876-.4253-.7592-.8667-1.1654-1.2735q-7.9072-7.9173-15.8151-15.834a16.2118,16.2118,0,0,1-1.242-1.5917,20.4584,20.4584,0,0,1,2.47-.2543c3.87.0539,7.7388.1646,11.6085.2326C370.7606,28.2314,370.9923,28.0382,371.2223,27.9367Z" style="fill:#feedb7"/><path d="M382.4918,73.2532q-1.3812-1.1244-2.7625-2.2485-.1633-.4639-.3266-.928c.1074-2.0186.1906-4.0389.3325-6.0551.07-.993-.358-1.2721-1.2914-1.25-2.1039.0489-4.21.0162-6.3145.0167q-.1382-.0016-.2754-.0157l-.1046.0165q-3.32-3.4139-6.6384-6.83c-.4335-.4474-.8414-.9195-1.261-1.38l18.2586-.2266-4.9239-5.1712.0137-2.1551-.0052-.1247h5.05c.1733.296.2692.3833.2692.4706Q382.509,60.3125,382.4918,73.2532Z" style="fill:#fec27c"/><path d="M365.78,17.5635l2.9475,3.7618H364.82l-.9255-.3364-2.74-3.5115h4.0594Z" style="fill:#fed234"/><path d="M342.99,36.1921l5.3809-.0134q-.0065,10.4664-.0129,20.9326l-5.0272.02-.6556-.05c-1.35-1.4-2.6806-2.82-4.0534-4.1976q-7.5881-7.614-15.1973-15.2067c-.3958-.3962-.77-.8142-1.4011-1.4848Z" style="fill:#feedb7"/><path d="M356.4543,28.2491a16.2118,16.2118,0,0,0,1.242,1.5917q7.8939,7.9306,15.8151,15.834c.4062.4068.7778.8482,1.1653,1.2735H356.0716c2.002,1.98,3.69,3.6069,5.3245,5.2857.6816.7,1.25,1.51,1.87,2.27h-7.1949c-.0392-.5327-.1018-.9889-.1021-1.4452q-.009-11.7108.0165-23.4216A4.7,4.7,0,0,1,356.4543,28.2491Z" style="fill:#fed553"/><path d="M363.2663,54.504c-.62-.76-1.1886-1.57-1.87-2.27-1.6347-1.6788-3.3225-3.3059-5.3245-5.2857h18.6051q.15.0172.2976.0463,1.1052,1.0929,2.21,2.1864l4.9239,5.1712-18.2586.2266Z" style="fill:#fecf45"/><path d="M371.4913,78.6374q-7.2066-7.153-14.417-14.3023c-.4426-.4382-.9382-.8229-1.4092-1.2325a8.9307,8.9307,0,0,1,1.6157-.3019c4.823-.0231,9.6461-.0126,14.4688-.0119l.1039-.0164c-.0131,4.7425-.0156,9.485-.0527,14.2272A9.1022,9.1022,0,0,1,371.4913,78.6374Z" style="fill:#feecb6"/><path d="M343.3307,57.1312l5.0272-.02q-.007,2.5176-.014,5.0349Q345.8373,59.6387,343.3307,57.1312Z" style="fill:#fed563"/><path d="M371.4913,78.6374A9.1022,9.1022,0,0,0,371.8008,77c.0371-4.7422.04-9.4847.0527-14.2272.092.0092.1837.0145.2757.0155l7.2735,7.2888q.1634.4641.3266.928-.009,7.6012-.018,15.2029l-.614.0049q-2.9918-2.92-5.9868-5.8369c-.4127-.4-.8644-.76-1.2981-1.1381Q371.6519,78.9374,371.4913,78.6374Z" style="fill:#fee086"/><path d="M379.0973,86.2125l.614-.0049q-.1527.1689-.3053.3382Q379.2516,86.3793,379.0973,86.2125Z" style="fill:#feda76"/><path d="M377.1529,33.3725q-2.5273-2.5292-5.055-5.058C377.3593,28.1143,377.3593,28.1143,377.1529,33.3725Z" style="fill:#fee28d"/><path d="M377.1846,49.181q-1.105-1.0933-2.21-2.1864l2.224.0309Q377.1914,48.1037,377.1846,49.181Z" style="fill:#febc68"/><path d="M379.4027,70.0767l-7.2735-7.2888c2.105,0,4.2107.0323,6.3146-.0166.9334-.0218,1.3614.2573,1.2914,1.25C379.5933,66.0378,379.51,68.0581,379.4027,70.0767Z" style="fill:#febc68"/></g><path d="M615.9872,16l36.95,64h-73.9Z"/></svg>